<?xml version="1.0" standalone="no"?>
<!DOCTYPE svg PUBLIC "-//W3C//DTD SVG 20010904//EN"
 "http://www.w3.org/TR/2001/REC-SVG-20010904/DTD/svg10.dtd">
<svg version="1.0" xmlns="http://www.w3.org/2000/svg"
 width="500.000000pt" height="500.000000pt" viewBox="0 0 500.000000 500.000000"
 preserveAspectRatio="xMidYMid meet">
<metadata>
Created by potrace 1.14, written by Peter Selinger 2001-2017
</metadata>
<g transform="translate(0.000000,500.000000) scale(0.100000,-0.100000)"
fill="#000000" stroke="none">
<path d="M2170 4342 c-42 -15 -97 -42 -122 -59 -26 -18 -65 -35 -85 -38 -61
-10 -71 -16 -48 -25 17 -7 15 -9 -11 -9 -30 -1 -75 -28 -101 -61 -7 -8 -29
-49 -50 -90 -21 -41 -51 -93 -66 -116 -50 -72 -83 -326 -57 -442 46 -206 64
-267 91 -309 16 -26 34 -73 40 -105 7 -33 18 -66 25 -73 8 -7 14 -16 14 -20 0
-11 31 -38 36 -32 6 6 -10 167 -26 272 -5 33 -10 119 -10 191 -1 116 1 136 19
165 12 19 21 30 21 25 0 -5 9 -1 19 8 13 12 28 16 43 11 l23 -6 -24 14 -23 14
45 27 c26 14 59 28 74 30 15 3 38 7 51 10 17 4 22 0 22 -15 0 -10 -5 -19 -12
-19 -9 0 -9 -3 0 -12 7 -7 12 -24 12 -38 0 -41 30 -131 41 -124 5 3 7 22 4 42
-2 20 0 44 6 52 8 11 9 -4 6 -55 -5 -78 -2 -95 19 -95 10 0 11 6 4 26 -24 61
0 174 37 174 7 0 13 5 13 10 0 6 6 10 14 10 8 0 23 14 33 30 9 17 24 30 33 31
8 0 2 6 -13 13 l-28 12 26 12 c14 7 32 12 40 12 8 0 15 6 15 13 0 8 11 19 25
25 32 15 38 15 29 1 -5 -9 7 -10 47 -5 55 7 79 20 79 40 0 6 9 17 21 24 18 11
19 16 7 30 -12 15 -11 16 5 3 18 -14 34 -10 23 7 -10 17 -46 21 -46 6 0 -9
-11 -6 -36 11 -20 14 -45 25 -55 25 -11 0 -19 5 -19 10 0 6 -5 10 -10 10 -6 0
-21 10 -33 21 -20 20 -21 21 -2 14 11 -4 34 -12 50 -18 17 -5 56 -20 87 -32
52 -21 96 -24 99 -6 10 48 0 81 -24 81 -6 0 -2 -6 9 -14 10 -8 16 -18 12 -22
-4 -4 -14 -2 -21 4 -8 7 -17 9 -21 5 -3 -3 6 -15 21 -25 16 -10 24 -18 20 -18
-8 0 -59 31 -67 41 -5 6 -17 10 -125 34 -38 9 -76 22 -85 29 -8 7 -22 16 -30
19 -8 3 30 4 85 1 l100 -4 -39 19 c-25 12 -51 17 -75 14 -26 -4 -41 0 -50 11
-8 9 -28 16 -47 16 -47 0 -35 28 14 33 l37 4 -38 1 c-25 1 -36 6 -31 13 4 8
-3 9 -22 6 -43 -8 -130 -17 -119 -12 38 17 171 45 189 40 17 -5 18 -4 6 4 -8
6 -24 11 -35 11 -11 0 -26 4 -34 9 -9 6 20 9 75 8 49 -1 100 2 113 7 15 5 21
5 17 -2 -4 -7 9 -9 35 -7 22 1 53 -3 67 -11 15 -7 46 -17 70 -22 34 -8 41 -8
32 3 -6 7 -33 15 -61 19 -30 4 -52 13 -56 21 -3 8 -17 15 -32 15 -19 0 -22 3
-12 9 10 6 27 5 49 -5 19 -8 40 -14 46 -13 6 0 0 5 -14 11 l-25 11 25 7 c33
10 16 16 -86 30 -167 22 -212 21 -294 -8z m30 -82 c16 -5 -6 -8 -65 -8 -64 1
-80 3 -55 8 46 10 89 10 120 0z"/>
<path d="M2508 4363 c6 -2 18 -2 25 0 6 3 1 5 -13 5 -14 0 -19 -2 -12 -5z"/>
<path d="M2613 4293 c9 -2 23 -2 30 0 6 3 -1 5 -18 5 -16 0 -22 -2 -12 -5z"/>
<path d="M2795 4263 c4 -9 -2 -13 -17 -14 -21 -1 -21 -2 -3 -7 29 -10 29 -30
1 -25 -13 3 -27 0 -30 -6 -5 -7 2 -11 18 -11 13 0 32 -3 42 -7 13 -5 15 -3 9
8 -7 11 -5 11 10 -1 18 -14 17 -15 -4 -18 -13 -2 -51 1 -85 7 -81 14 -99 14
-90 -1 5 -8 2 -9 -12 -4 -40 17 -58 17 -29 0 17 -9 33 -21 36 -26 3 -5 16 -10
27 -11 12 -1 22 -6 22 -11 0 -5 3 -6 7 -3 3 4 12 2 20 -4 9 -8 13 -8 13 -1 0
6 7 9 16 5 13 -5 13 -7 2 -14 -10 -7 -8 -9 6 -9 11 0 17 -3 13 -6 -5 -5 59
-74 69 -74 14 0 -4 25 -60 83 -37 40 -57 67 -48 67 31 0 81 -45 102 -93 22
-48 65 -95 98 -109 15 -6 15 -7 -2 -7 -15 -1 -16 -4 -6 -16 6 -8 15 -13 18
-12 7 2 12 -7 12 -18 0 -3 -12 2 -27 12 -24 16 -23 13 13 -42 21 -33 41 -62
44 -65 3 -3 11 -18 18 -34 l13 -30 25 29 c18 21 24 24 24 12 0 -10 -3 -17 -8
-17 -4 0 -13 -9 -20 -21 -10 -16 -10 -27 0 -55 6 -19 15 -34 19 -34 11 0 40
50 34 59 -2 5 2 11 10 15 13 5 13 1 0 -31 -9 -21 -22 -44 -29 -53 -10 -11 -11
-24 -4 -49 7 -25 12 -31 18 -21 6 9 10 1 13 -26 3 -34 4 -32 6 16 1 30 5 48 8
40 4 -8 13 -20 20 -25 8 -6 18 -28 23 -50 10 -41 12 -140 3 -117 -8 20 -23 14
-23 -10 0 -15 -3 -19 -8 -11 -4 7 -13 9 -20 4 -10 -6 -12 -34 -9 -115 3 -59 8
-110 11 -113 8 -8 26 43 27 75 l1 27 8 -28 c5 -17 5 -39 0 -53 -5 -13 -5 -26
-1 -28 9 -6 21 50 21 104 0 26 3 31 10 20 8 -12 17 -7 50 29 41 45 45 57 41
124 -2 20 2 37 7 37 25 0 48 122 33 178 -8 28 -28 29 -23 2 2 -10 -2 -8 -11 5
-9 11 -21 20 -29 20 -7 0 -18 16 -25 35 -6 19 -17 34 -24 32 -9 -2 -9 1 1 13
13 16 15 15 27 -1 7 -10 13 -22 13 -27 0 -4 4 -6 9 -2 5 3 11 -5 13 -17 3 -19
4 -20 10 -6 5 12 -4 30 -27 59 -37 43 -50 78 -14 38 19 -23 20 -23 9 -2 -5 12
-18 28 -28 35 -9 7 -24 22 -32 32 -14 18 -14 19 8 7 24 -13 29 -3 10 18 -11
11 -10 12 2 6 13 -7 13 -6 0 8 -8 8 -35 20 -60 25 l-45 10 41 1 c22 1 46 -5
53 -11 11 -11 13 -9 8 10 -3 13 0 25 9 30 11 6 7 17 -22 50 -20 24 -50 49 -68
58 l-31 15 33 -26 c17 -15 32 -35 32 -46 0 -11 3 -18 8 -15 4 2 12 -7 19 -20
11 -23 1 -35 -12 -14 -4 6 -11 8 -16 4 -5 -3 -8 -2 -7 3 2 4 -8 22 -21 39 -16
22 -29 30 -42 27 -10 -3 -19 0 -19 6 0 6 -11 17 -25 23 -14 6 -25 17 -25 25 0
7 -11 13 -26 13 -14 0 -23 4 -19 10 4 6 11 8 16 5 5 -4 9 -1 9 4 0 14 -6 14
-31 1 -15 -9 -19 -7 -19 7 0 15 -2 16 -10 3 -8 -12 -10 -12 -10 5 -1 18 -2 18
-12 4 -10 -14 -13 -14 -30 3 -10 10 -18 24 -18 31 0 7 -7 22 -16 33 -8 10 -13
13 -9 7 9 -19 -6 -16 -22 5 -8 9 -12 11 -8 5z m389 -249 c3 -8 2 -12 -4 -9 -6
3 -10 10 -10 16 0 14 7 11 14 -7z m-108 -21 c-7 -7 -26 7 -26 19 0 6 6 6 15
-2 9 -7 13 -15 11 -17z m58 -201 c3 7 3 2 0 -12 -6 -24 -5 -24 9 -6 14 19 15
19 21 -2 4 -12 12 -22 17 -22 5 0 9 -9 9 -19 0 -11 5 -23 10 -26 6 -3 10 -12
10 -18 0 -7 -8 -3 -17 8 l-16 20 8 -20 c20 -53 34 -109 30 -114 -3 -3 -9 6
-12 19 -7 25 -41 93 -84 165 -15 26 -18 36 -7 27 13 -10 17 -10 22 0z m25
-142 c24 -55 25 -66 11 -75 -6 -3 -7 1 -4 10 7 17 -14 48 -27 40 -10 -7 -31
30 -22 38 3 4 1 13 -5 20 -7 8 -9 16 -6 20 13 13 33 -7 53 -53z m71 -8 c0 -10
6 -26 14 -37 7 -11 13 -27 14 -35 0 -8 4 -26 8 -40 13 -48 -13 -6 -29 45 -22
73 -26 96 -16 89 5 -3 9 -13 9 -22z m-103 -294 c-3 -8 -6 -5 -6 6 -1 11 2 17
5 13 3 -3 4 -12 1 -19z"/>
<path d="M2300 4230 c-17 -5 1 -8 54 -9 44 -1 77 1 75 3 -10 8 -106 13 -129 6z"/>
<path d="M2363 4203 c9 -2 23 -2 30 0 6 3 -1 5 -18 5 -16 0 -22 -2 -12 -5z"/>
<path d="M2555 4200 c3 -5 8 -10 11 -10 2 0 4 5 4 10 0 6 -5 10 -11 10 -5 0
-7 -4 -4 -10z"/>
<path d="M2411 4196 c8 -7 119 -46 119 -41 0 9 -80 45 -101 45 -12 0 -20 -2
-18 -4z"/>
<path d="M2263 4173 c9 -2 23 -2 30 0 6 3 -1 5 -18 5 -16 0 -22 -2 -12 -5z"/>
<path d="M2570 4150 c8 -5 20 -10 25 -10 6 0 3 5 -5 10 -8 5 -19 10 -25 10 -5
0 -3 -5 5 -10z"/>
<path d="M3030 4140 c20 -13 43 -13 35 0 -3 6 -16 10 -28 10 -18 0 -19 -2 -7
-10z"/>
<path d="M2614 4115 c11 -8 24 -15 30 -15 5 0 6 -3 3 -6 -4 -4 2 -19 13 -34
26 -36 26 -50 1 -21 -11 12 -22 22 -26 21 -4 -1 -10 2 -13 6 -4 4 0 4 8 0 8
-4 7 -1 -3 8 -11 8 -25 12 -32 9 -17 -6 -8 -33 10 -33 8 0 23 -11 34 -25 18
-24 69 -46 56 -24 -6 8 15 13 42 10 26 -4 0 28 -42 50 -24 13 -42 25 -40 27 2
2 13 -1 24 -8 42 -22 20 -1 -25 24 -51 29 -70 34 -40 11z"/>
<path d="M2540 4100 c8 -5 20 -10 25 -10 6 0 3 5 -5 10 -8 5 -19 10 -25 10 -5
0 -3 -5 5 -10z"/>
<path d="M2490 4071 c-22 -6 -23 -8 -7 -14 10 -4 28 -7 38 -7 13 0 18 -4 13
-12 -4 -7 -3 -8 5 -4 14 9 5 26 -15 26 -8 0 -12 5 -9 10 3 6 5 10 3 9 -2 -1
-14 -4 -28 -8z"/>
<path d="M2610 4003 c0 -5 9 -18 20 -28 11 -10 20 -16 20 -13 0 3 -9 15 -20
28 -11 13 -20 19 -20 13z"/>
<path d="M2285 3770 c-13 -6 -15 -9 -5 -9 8 0 22 4 30 9 18 12 2 12 -25 0z"/>
<path d="M3130 3514 c0 -16 5 -36 10 -44 6 -10 7 -2 3 25 -7 49 -13 58 -13 19z"/>
<path d="M3093 3465 c0 -22 2 -30 4 -17 2 12 2 30 0 40 -3 9 -5 -1 -4 -23z"/>
<path d="M2723 3300 c-13 -5 -23 -11 -23 -14 0 -6 60 11 68 19 8 8 -20 5 -45
-5z"/>
<path d="M2112 3267 c-11 -13 -4 -17 55 -27 37 -7 79 -11 93 -8 l25 3 -28 19
c-38 26 -128 34 -145 13z"/>
<path d="M1930 3250 c-8 -5 -10 -10 -5 -10 6 0 17 5 25 10 8 5 11 10 5 10 -5
0 -17 -5 -25 -10z"/>
<path d="M1948 3223 c7 -3 16 -2 19 1 4 3 -2 6 -13 5 -11 0 -14 -3 -6 -6z"/>
<path d="M2725 3205 c-19 -8 -24 -14 -13 -14 9 -1 24 -11 32 -22 9 -14 21 -19
31 -15 13 5 15 9 6 20 -9 11 -5 16 20 25 26 9 37 8 57 -5 13 -8 26 -13 29 -11
3 3 -9 13 -26 21 -37 19 -96 20 -136 1z"/>
<path d="M2085 3167 c-38 -15 -75 -39 -75 -49 0 -17 46 -7 58 12 14 23 42 27
42 5 0 -15 24 -23 69 -23 15 -1 25 6 28 19 3 10 13 19 22 19 11 1 8 5 -9 15
-30 17 -94 18 -135 2z m99 -15 c2 -4 -4 -8 -15 -8 -10 0 -19 4 -19 8 0 4 6 8
14 8 8 0 17 -4 20 -8z m-44 -22 c0 -5 -2 -10 -4 -10 -3 0 -8 5 -11 10 -3 6 -1
10 4 10 6 0 11 -4 11 -10z"/>
<path d="M4358 3173 c-10 -2 -18 -10 -18 -17 0 -7 -9 -21 -20 -31 -19 -17 -60
-92 -60 -110 0 -5 -11 -20 -24 -34 -25 -27 -48 -99 -27 -87 6 4 25 5 41 1 21
-5 30 -14 35 -36 8 -34 12 -35 37 -12 16 14 37 17 126 14 76 -1 111 -6 123
-17 17 -16 64 -10 109 13 36 18 63 16 94 -8 32 -25 35 -70 6 -99 -25 -25 -26
-40 -1 -40 10 0 21 -6 24 -14 4 -9 28 -17 64 -22 32 -3 67 -10 79 -14 11 -5
28 -4 37 1 15 9 17 32 17 201 0 105 -3 188 -7 185 -3 -4 -17 0 -29 8 -28 18
-48 12 -62 -19 -7 -16 -22 -26 -46 -30 -26 -5 -36 -12 -36 -26 0 -19 -10 -24
-72 -35 -55 -9 -78 18 -78 89 0 46 -3 56 -20 61 -25 8 -40 -1 -40 -23 0 -9 -9
-32 -20 -49 -16 -27 -26 -33 -52 -33 -57 1 -77 27 -80 106 -3 68 -3 69 -30 66
-14 -1 -29 2 -33 8 -6 10 -9 11 -37 3z"/>
<path d="M2388 2713 c6 -2 18 -2 25 0 6 3 1 5 -13 5 -14 0 -19 -2 -12 -5z"/>
<path d="M4330 2640 c0 -27 -3 -32 -20 -27 -11 3 -20 1 -20 -4 0 -14 -48 -11
-73 5 -27 16 -197 16 -218 0 -18 -14 -112 -44 -139 -44 -12 0 -30 -5 -41 -11
-16 -8 -25 -7 -37 4 -9 7 -42 23 -72 35 -115 44 -125 46 -168 35 -42 -11 -119
-2 -155 18 -29 16 -77 -26 -79 -70 -1 -20 -2 -43 -4 -51 -1 -8 -2 -35 -3 -58
-1 -35 -5 -45 -21 -49 -11 -3 -20 -9 -20 -13 0 -5 -13 -13 -30 -19 -16 -5 -30
-15 -30 -21 0 -6 -5 -8 -12 -4 -15 9 -5 -7 43 -71 21 -27 41 -63 45 -80 4 -16
22 -48 41 -69 18 -22 33 -43 33 -47 0 -5 8 -13 19 -18 13 -8 41 -5 101 11 79
20 84 20 151 4 46 -11 86 -14 119 -10 27 3 65 3 85 0 44 -9 104 -61 88 -77 -8
-8 -8 -20 -1 -41 8 -21 7 -33 -1 -41 -8 -8 5 -25 49 -67 52 -47 61 -61 65 -95
3 -36 10 -57 42 -135 6 -14 9 -29 7 -35 -4 -10 46 -48 79 -61 22 -8 23 22 3
52 -8 11 -16 31 -17 45 -3 30 11 89 21 89 12 0 51 70 45 81 -10 16 4 10 24
-10 11 -11 17 -22 14 -25 -3 -3 13 -26 36 -51 22 -24 41 -54 41 -65 0 -12 5
-18 10 -15 6 3 10 -1 10 -9 0 -8 -4 -17 -9 -20 -10 -7 -21 -52 -28 -121 -3
-27 -10 -53 -15 -56 -6 -4 7 -19 28 -35 92 -71 159 -167 198 -285 15 -46 42
-122 61 -169 39 -98 43 -114 85 -310 17 -80 45 -206 61 -280 16 -74 39 -183
51 -242 l22 -108 89 0 c65 0 92 4 103 15 20 20 19 275 -1 275 -23 0 -26 43 -5
65 20 21 20 42 19 1066 l0 1045 -31 12 c-21 8 -37 8 -49 1 -24 -12 -97 8 -109
31 -5 9 -24 17 -44 18 -30 2 -36 -1 -36 -17 0 -10 -8 -29 -18 -42 -22 -27 -79
-31 -97 -6 -6 8 -23 19 -38 22 -14 4 -31 13 -37 20 -15 18 -9 67 9 73 10 3 12
-2 7 -22 -3 -14 -2 -26 3 -26 5 0 12 10 14 23 3 17 5 16 6 -8 l1 -30 20 33
c17 27 23 31 39 22 26 -14 31 -13 31 5 0 9 -11 21 -25 27 -14 6 -25 17 -25 25
0 16 -16 17 -25 2 -15 -24 -55 -29 -101 -13 -26 9 -55 17 -66 19 -11 3 -27 10
-36 17 -12 11 -16 11 -20 0 -3 -10 -8 -9 -23 4 -18 16 -19 16 -19 -16z m613
-254 c25 -19 22 -74 -5 -97 -35 -31 -88 -6 -88 40 0 55 53 87 93 57z m-288
-236 c3 -5 1 -10 -4 -10 -6 0 -11 5 -11 10 0 6 2 10 4 10 3 0 8 -4 11 -10z
m-389 -27 c21 -22 25 -35 20 -62 -7 -44 -51 -91 -87 -91 -35 0 -45 14 -53 73
-5 45 -3 51 23 78 37 36 65 37 97 2z m620 -331 c6 -12 20 -33 31 -45 11 -12
24 -39 27 -60 6 -34 5 -39 -13 -44 -12 -3 -21 -8 -21 -12 0 -3 -14 -12 -32
-20 -24 -11 -33 -11 -36 -2 -2 6 -14 24 -26 39 -27 32 -42 92 -23 92 6 0 20
19 29 41 19 46 44 50 64 11z m-346 -442 c0 -5 -2 -10 -4 -10 -3 0 -8 5 -11 10
-3 6 -1 10 4 10 6 0 11 -4 11 -10z"/>
<path d="M3042 2480 c-6 -11 -12 -31 -12 -45 0 -22 4 -25 33 -25 17 0 27 4 22
8 -6 4 -12 21 -13 37 -5 40 -15 49 -30 25z"/>
<path d="M2222 2140 c17 -30 122 -80 151 -72 18 5 13 9 -29 21 -27 9 -63 25
-80 37 -52 37 -57 39 -42 14z"/>
<path d="M1956 2107 c-10 -21 -16 -41 -13 -43 8 -8 38 47 35 64 -2 11 -9 4
-22 -21z"/>
<path d="M0 1423 l1 -288 20 38 c34 64 87 69 121 11 11 -19 23 -34 26 -34 4 1
35 7 68 14 34 7 75 11 93 8 17 -2 72 3 121 13 68 13 96 15 120 7 17 -6 37 -9
45 -6 13 5 18 -4 17 -26 0 -3 30 -5 66 -5 37 1 70 -4 74 -10 4 -5 8 1 8 14 0
17 -3 21 -12 13 -7 -5 -22 -6 -33 -2 -11 4 -33 5 -50 3 -21 -4 -27 -2 -20 5 6
6 26 13 45 16 73 9 80 15 121 104 21 47 39 88 39 91 0 4 -9 7 -20 8 -12 1 -43
18 -71 37 -27 20 -55 36 -62 36 -6 0 -32 -14 -57 -31 -40 -27 -50 -30 -94 -24
-27 3 -81 17 -121 30 -55 18 -86 22 -131 18 -56 -4 -63 -2 -129 39 -80 50
-113 97 -96 141 9 24 7 27 -33 46 -23 12 -45 21 -49 21 -4 0 -7 -129 -7 -287z"/>
<path d="M2157 1219 c10 -10 10 -16 1 -27 -10 -12 -9 -14 7 -11 27 6 26 43 0
47 -16 3 -18 1 -8 -9z"/>
<path d="M2131 1159 c18 -11 39 -11 39 0 0 5 -12 9 -26 9 -18 0 -22 -3 -13 -9z"/>
<path d="M322 744 c-24 -28 -21 -44 6 -44 23 0 55 38 48 56 -8 21 -28 17 -54
-12z"/>
<path d="M545 748 c-6 -16 11 -355 19 -387 3 -13 6 -53 7 -88 1 -48 -2 -69
-14 -81 -24 -23 -83 -21 -108 4 -19 19 -20 35 -23 209 -3 144 -7 189 -17 196
-22 14 -34 5 -34 -24 -1 -15 -5 -31 -11 -37 -14 -14 -73 5 -125 40 -24 16 -51
30 -59 30 -9 0 -20 4 -25 9 -15 13 -105 41 -132 41 l-23 0 0 -330 0 -330 228
0 c194 0 234 3 263 17 46 23 159 93 187 117 23 21 31 68 10 64 -8 -2 -14 9
-16 26 -2 16 1 26 6 22 6 -3 8 13 6 42 -3 37 -2 41 5 17 6 -24 9 -11 14 60 4
50 12 138 18 198 10 109 4 147 -24 147 -7 0 -28 11 -47 25 -36 27 -97 34 -105
13z"/>
<path d="M3899 142 c-3 -20 -2 -29 4 -23 5 5 7 19 5 32 -3 20 -5 19 -9 -9z"/>
<path d="M675 10 c-3 -5 -1 -10 4 -10 6 0 11 5 11 10 0 6 -2 10 -4 10 -3 0 -8
-4 -11 -10z"/>
</g>
</svg>
